<svg xmlns="http://www.w3.org/2000/svg" xmlns:xlink="http://www.w3.org/1999/xlink" width="382pt" height="789pt" viewBox="0.00 0.00 382.00 789.00">
<g id="graph0" class="graph" transform="scale(1 1) rotate(0) translate(4 785.4)">
<title>SengaOrderProcess</title>
<polygon fill="white" stroke="none" points="-4,4 -4,-785.4 378.38,-785.4 378.38,4 -4,4"/>
<!-- Order_Arrival -->
<g id="node1" class="node">
<title>Order_Arrival</title>
<polygon fill="lightblue" stroke="black" points="287.29,-781.4 209.62,-781.4 209.62,-745.4 287.29,-745.4 287.29,-781.4"/>
<text xml:space="preserve" text-anchor="middle" x="248.46" y="-766.4" font-family="Times,serif" font-size="10.00">Order Arrival</text>
<text xml:space="preserve" text-anchor="middle" x="248.46" y="-754.4" font-family="Times,serif" font-size="10.00">(via OMS API)</text>
</g>
<!-- State_Update -->
<g id="node2" class="node">
<title>State_Update</title>
<polygon fill="lightblue" stroke="black" points="305.89,-708.4 191.02,-708.4 191.02,-672.4 305.89,-672.4 305.89,-708.4"/>
<text xml:space="preserve" text-anchor="middle" x="248.46" y="-693.4" font-family="Times,serif" font-size="10.00">State Update</text>
<text xml:space="preserve" text-anchor="middle" x="248.46" y="-681.4" font-family="Times,serif" font-size="10.00">(Add to pending_orders)</text>
</g>
<!-- Order_Arrival&#45;&gt;State_Update -->
<g id="edge1" class="edge">
<title>Order_Arrival-&gt;State_Update</title>
<path fill="none" stroke="navy" stroke-width="2" d="M248.46,-745.21C248.46,-738.06 248.46,-729.55 248.46,-721.42"/>
<polygon fill="navy" stroke="navy" stroke-width="2" points="251.96,-721.46 248.46,-711.46 244.96,-721.46 251.96,-721.46"/>
</g>
<!-- Consolidation_Detection -->
<g id="node3" class="node">
<title>Consolidation_Detection</title>
<polygon fill="lightblue" stroke="black" points="310.21,-635.4 186.71,-635.4 186.71,-591.4 310.21,-591.4 310.21,-635.4"/>
<text xml:space="preserve" text-anchor="middle" x="248.46" y="-622.4" font-family="Times,serif" font-size="10.00">Consolidation Opportunity</text>
<text xml:space="preserve" text-anchor="middle" x="248.46" y="-610.4" font-family="Times,serif" font-size="10.00">Detection</text>
<text xml:space="preserve" text-anchor="middle" x="248.46" y="-598.4" font-family="Times,serif" font-size="10.00">(Spatial, Time, Capacity)</text>
</g>
<!-- State_Update&#45;&gt;Consolidation_Detection -->
<g id="edge2" class="edge">
<title>State_Update-&gt;Consolidation_Detection</title>
<path fill="none" stroke="navy" stroke-width="2" d="M248.46,-672C248.46,-664.99 248.46,-656.64 248.46,-648.51"/>
<polygon fill="navy" stroke="navy" stroke-width="2" points="251.96,-648.74 248.46,-638.74 244.96,-648.74 251.96,-648.74"/>
</g>
<!-- Tactical_CFA -->
<g id="node4" class="node">
<title>Tactical_CFA</title>
<polygon fill="lightblue" stroke="black" points="326.03,-554.4 170.88,-554.4 170.88,-510.4 326.03,-510.4 326.03,-554.4"/>
<text xml:space="preserve" text-anchor="middle" x="248.46" y="-541.4" font-family="Times,serif" font-size="10.00">Tactical CFA</text>
<text xml:space="preserve" text-anchor="middle" x="248.46" y="-529.4" font-family="Times,serif" font-size="10.00">(Consolidation Decision)</text>
<text xml:space="preserve" text-anchor="middle" x="248.46" y="-517.4" font-family="Times,serif" font-size="10.00">(Optimize: Utilization, Cost, SLA)</text>
</g>
<!-- Consolidation_Detection&#45;&gt;Tactical_CFA -->
<g id="edge3" class="edge">
<title>Consolidation_Detection-&gt;Tactical_CFA</title>
<path fill="none" stroke="navy" stroke-width="2" d="M248.46,-591.23C248.46,-583.97 248.46,-575.64 248.46,-567.62"/>
<polygon fill="navy" stroke="navy" stroke-width="2" points="251.96,-567.66 248.46,-557.66 244.96,-567.66 251.96,-567.66"/>
</g>
<!-- Wait_Dispatch -->
<g id="node5" class="node">
<title>Wait_Dispatch</title>
<polygon fill="lightblue" stroke="black" points="255.36,-473.4 153.55,-473.4 153.55,-429.4 255.36,-429.4 255.36,-473.4"/>
<text xml:space="preserve" text-anchor="middle" x="204.46" y="-460.4" font-family="Times,serif" font-size="10.00">Wait-or-Dispatch</text>
<text xml:space="preserve" text-anchor="middle" x="204.46" y="-448.4" font-family="Times,serif" font-size="10.00">Decision</text>
<text xml:space="preserve" text-anchor="middle" x="204.46" y="-436.4" font-family="Times,serif" font-size="10.00">(Util ≥ 75% or Wait)</text>
</g>
<!-- Tactical_CFA&#45;&gt;Wait_Dispatch -->
<g id="edge4" class="edge">
<title>Tactical_CFA-&gt;Wait_Dispatch</title>
<path fill="none" stroke="navy" stroke-width="2" d="M236.66,-510.23C232.32,-502.44 227.3,-493.42 222.53,-484.86"/>
<polygon fill="navy" stroke="navy" stroke-width="2" points="225.68,-483.31 217.75,-476.27 219.56,-486.71 225.68,-483.31"/>
</g>
<!-- Route_Optimization -->
<g id="node6" class="node">
<title>Route_Optimization</title>
<polygon fill="lightblue" stroke="black" points="249.96,-392.4 110.95,-392.4 110.95,-348.4 249.96,-348.4 249.96,-392.4"/>
<text xml:space="preserve" text-anchor="middle" x="180.46" y="-379.4" font-family="Times,serif" font-size="10.00">Route Optimization</text>
<text xml:space="preserve" text-anchor="middle" x="180.46" y="-367.4" font-family="Times,serif" font-size="10.00">(Mesh Network)</text>
<text xml:space="preserve" text-anchor="middle" x="180.46" y="-355.4" font-family="Times,serif" font-size="10.00">(Sequence Pickups/Deliveries)</text>
</g>
<!-- Wait_Dispatch&#45;&gt;Route_Optimization -->
<g id="edge5" class="edge">
<title>Wait_Dispatch-&gt;Route_Optimization</title>
<path fill="none" stroke="navy" stroke-width="2" d="M198.02,-429.23C195.76,-421.79 193.17,-413.24 190.67,-405.03"/>
<polygon fill="navy" stroke="navy" stroke-width="2" points="194.04,-404.08 187.78,-395.53 187.34,-406.11 194.04,-404.08"/>
</g>
<!-- Execution -->
<g id="node7" class="node">
<title>Execution</title>
<polygon fill="lightblue" stroke="black" points="218.98,-311.4 79.93,-311.4 79.93,-275.4 218.98,-275.4 218.98,-311.4"/>
<text xml:space="preserve" text-anchor="middle" x="149.46" y="-296.4" font-family="Times,serif" font-size="10.00">Execution</text>
<text xml:space="preserve" text-anchor="middle" x="149.46" y="-284.4" font-family="Times,serif" font-size="10.00">(Push to OMS &amp; Driver Apps)</text>
</g>
<!-- Route_Optimization&#45;&gt;Execution -->
<g id="edge6" class="edge">
<title>Route_Optimization-&gt;Execution</title>
<path fill="none" stroke="navy" stroke-width="2" d="M171.65,-348.11C168.47,-340.4 164.82,-331.56 161.4,-323.31"/>
<polygon fill="navy" stroke="navy" stroke-width="2" points="164.72,-322.16 157.66,-314.26 158.25,-324.84 164.72,-322.16"/>
</g>
<!-- Waypoint_Updates -->
<g id="node8" class="node">
<title>Waypoint_Updates</title>
<polygon fill="lightblue" stroke="black" points="250.89,-117 146.02,-117 146.02,-81 250.89,-81 250.89,-117"/>
<text xml:space="preserve" text-anchor="middle" x="198.46" y="-102" font-family="Times,serif" font-size="10.00">Waypoint Updates</text>
<text xml:space="preserve" text-anchor="middle" x="198.46" y="-90" font-family="Times,serif" font-size="10.00">(Driver GPS Updates)</text>
</g>
<!-- Execution&#45;&gt;Waypoint_Updates -->
<g id="edge7" class="edge">
<title>Execution-&gt;Waypoint_Updates</title>
<path fill="none" stroke="navy" stroke-width="2" d="M79.53,-275.75C67.48,-271.01 55.59,-265 45.46,-257.4 11.77,-232.16 -14.61,-204.34 9.46,-169.8 37.15,-130.05 90.2,-112.88 133.06,-105.49"/>
<polygon fill="navy" stroke="navy" stroke-width="2" points="133.37,-108.99 142.72,-104 132.3,-102.07 133.37,-108.99"/>
</g>
<!-- OMS -->
<g id="node10" class="node">
<title>OMS</title>
<polygon fill="lightgreen" stroke="black" points="82.76,-205.8 18.15,-205.8 18.15,-169.8 82.76,-169.8 82.76,-205.8"/>
<text xml:space="preserve" text-anchor="middle" x="50.46" y="-184.8" font-family="Times,serif" font-size="10.00">Senga OMS</text>
</g>
<!-- Execution&#45;&gt;OMS -->
<g id="edge9" class="edge">
<title>Execution-&gt;OMS</title>
<path fill="none" stroke="navy" stroke-width="2" d="M82.32,-274.95C74.15,-270.39 66.67,-264.64 60.9,-257.4 52.37,-246.7 49.36,-232 48.64,-218.94"/>
<polygon fill="navy" stroke="navy" stroke-width="2" points="52.14,-219.19 48.6,-209.21 45.14,-219.22 52.14,-219.19"/>
<text xml:space="preserve" text-anchor="middle" x="100.18" y="-244.8" font-family="Times,serif" font-size="14.00">Consolidation</text>
<text xml:space="preserve" text-anchor="middle" x="100.18" y="-228" font-family="Times,serif" font-size="14.00">Assignments</text>
</g>
<!-- Shipper_APIs -->
<g id="node11" class="node">
<title>Shipper_APIs</title>
<polygon fill="lightgreen" stroke="black" points="174.26,-205.8 104.65,-205.8 104.65,-169.8 174.26,-169.8 174.26,-205.8"/>
<text xml:space="preserve" text-anchor="middle" x="139.46" y="-184.8" font-family="Times,serif" font-size="10.00">Shipper APIs</text>
</g>
<!-- Execution&#45;&gt;Shipper_APIs -->
<g id="edge10" class="edge">
<title>Execution-&gt;Shipper_APIs</title>
<path fill="none" stroke="navy" stroke-width="2" d="M147.8,-275.29C146.34,-260.09 144.16,-237.5 142.39,-219.22"/>
<polygon fill="navy" stroke="navy" stroke-width="2" points="145.88,-218.91 141.43,-209.29 138.91,-219.58 145.88,-218.91"/>
<text xml:space="preserve" text-anchor="middle" x="171.59" y="-244.8" font-family="Times,serif" font-size="14.00">Pickup</text>
<text xml:space="preserve" text-anchor="middle" x="171.59" y="-228" font-family="Times,serif" font-size="14.00">Schedule</text>
</g>
<!-- Driver_Apps -->
<g id="node12" class="node">
<title>Driver_Apps</title>
<polygon fill="lightgreen" stroke="black" points="258.31,-205.8 192.6,-205.8 192.6,-169.8 258.31,-169.8 258.31,-205.8"/>
<text xml:space="preserve" text-anchor="middle" x="225.46" y="-184.8" font-family="Times,serif" font-size="10.00">Driver Apps</text>
</g>
<!-- Execution&#45;&gt;Driver_Apps -->
<g id="edge11" class="edge">
<title>Execution-&gt;Driver_Apps</title>
<path fill="none" stroke="navy" stroke-width="2" d="M182.39,-274.91C189.41,-269.99 196.27,-264.12 201.46,-257.4 210.15,-246.13 215.85,-231.47 219.49,-218.6"/>
<polygon fill="navy" stroke="navy" stroke-width="2" points="222.87,-219.54 221.87,-208.99 216.07,-217.86 222.87,-219.54"/>
<text xml:space="preserve" text-anchor="middle" x="242.75" y="-244.8" font-family="Times,serif" font-size="14.00">Route</text>
<text xml:space="preserve" text-anchor="middle" x="242.75" y="-228" font-family="Times,serif" font-size="14.00">Manifest</text>
</g>
<!-- Learning_Update -->
<g id="node9" class="node">
<title>Learning_Update</title>
<polygon fill="lightblue" stroke="black" points="311.03,-44 175.88,-44 175.88,0 311.03,0 311.03,-44"/>
<text xml:space="preserve" text-anchor="middle" x="243.46" y="-31" font-family="Times,serif" font-size="10.00">Learning Update</text>
<text xml:space="preserve" text-anchor="middle" x="243.46" y="-19" font-family="Times,serif" font-size="10.00">(Update Models: Forecasting,</text>
<text xml:space="preserve" text-anchor="middle" x="243.46" y="-7" font-family="Times,serif" font-size="10.00">Routes, Policy)</text>
</g>
<!-- Waypoint_Updates&#45;&gt;Learning_Update -->
<g id="edge8" class="edge">
<title>Waypoint_Updates-&gt;Learning_Update</title>
<path fill="none" stroke="navy" stroke-width="2" d="M208.89,-80.6C213.41,-73.08 218.84,-64.03 224.05,-55.35"/>
<polygon fill="navy" stroke="navy" stroke-width="2" points="226.96,-57.29 229.11,-46.91 220.96,-53.69 226.96,-57.29"/>
</g>
<!-- Learning_Update&#45;&gt;Tactical_CFA -->
<g id="edge13" class="edge">
<title>Learning_Update-&gt;Tactical_CFA</title>
<path fill="none" stroke="navy" stroke-width="2" stroke-dasharray="5,2" d="M264.64,-44.32C276.31,-58.35 288.46,-77.8 288.46,-98 288.46,-452.4 288.46,-452.4 288.46,-452.4 288.46,-468.97 281.36,-485.6 273.15,-499.29"/>
<polygon fill="navy" stroke="navy" stroke-width="2" points="270.32,-497.22 267.77,-507.51 276.18,-501.06 270.32,-497.22"/>
<text xml:space="preserve" text-anchor="middle" x="331.42" y="-289.2" font-family="Times,serif" font-size="14.00">Update Models</text>
</g>
<!-- Driver_Apps&#45;&gt;Waypoint_Updates -->
<g id="edge12" class="edge">
<title>Driver_Apps-&gt;Waypoint_Updates</title>
<path fill="none" stroke="navy" stroke-width="2" stroke-dasharray="5,2" d="M209.3,-169.51C205.3,-164.22 201.55,-158.11 199.4,-151.8 197.06,-144.97 196.1,-137.33 195.88,-130.07"/>
<polygon fill="navy" stroke="navy" stroke-width="2" points="199.37,-130.35 196.1,-120.28 192.37,-130.2 199.37,-130.35"/>
<text xml:space="preserve" text-anchor="middle" x="236.93" y="-139.2" font-family="Times,serif" font-size="14.00">GPS Updates</text>
</g>
</g>
</svg>